<?xml version="1.0" encoding="UTF-8" standalone="no"?>
<!DOCTYPE svg PUBLIC "-//W3C//DTD SVG 1.1//EN"
 "http://www.w3.org/Graphics/SVG/1.1/DTD/svg11.dtd">
<!-- Generated by graphviz version 14.1.2 (0)
 -->
<!-- Title: data_model Pages: 1 -->
<svg width="1069pt" height="346pt"
 viewBox="0.00 0.00 1069.00 346.00" xmlns="http://www.w3.org/2000/svg" xmlns:xlink="http://www.w3.org/1999/xlink">
<g id="graph0" class="graph" transform="scale(1 1) rotate(0) translate(18 328)">
<title>data_model</title>
<!-- person -->
<g id="node1" class="node">
<title>person</title>
<path fill="#eef2f7" stroke="#4a5b6e" d="M50.67,-202C50.67,-202 12,-202 12,-202 6,-202 0,-196 0,-190 0,-190 0,-178 0,-178 0,-172 6,-166 12,-166 12,-166 50.67,-166 50.67,-166 56.67,-166 62.67,-172 62.67,-178 62.67,-178 62.67,-190 62.67,-190 62.67,-196 56.67,-202 50.67,-202"/>
<text xml:space="preserve" text-anchor="middle" x="31.33" y="-180.3" font-family="Helvetica,sans-Serif" font-size="11.00">Person</text>
</g>
<!-- family -->
<g id="node2" class="node">
<title>family</title>
<path fill="#eef2f7" stroke="#4a5b6e" d="M49.92,-310C49.92,-310 12.75,-310 12.75,-310 6.75,-310 0.75,-304 0.75,-298 0.75,-298 0.75,-286 0.75,-286 0.75,-280 6.75,-274 12.75,-274 12.75,-274 49.92,-274 49.92,-274 55.92,-274 61.92,-280 61.92,-286 61.92,-286 61.92,-298 61.92,-298 61.92,-304 55.92,-310 49.92,-310"/>
<text xml:space="preserve" text-anchor="middle" x="31.33" y="-288.3" font-family="Helvetica,sans-Serif" font-size="11.00">Family</text>
</g>
<!-- person&#45;&gt;family -->
<g id="edge1" class="edge">
<title>person&#45;&gt;family</title>
<path fill="none" stroke="#4a5b6e" d="M31.33,-202.32C31.33,-218.69 31.33,-242.98 31.33,-262.15"/>
<polygon fill="#4a5b6e" stroke="#4a5b6e" points="27.84,-262.08 31.34,-272.08 34.84,-262.08 27.84,-262.08"/>
<text xml:space="preserve" text-anchor="middle" x="17.08" y="-240.7" font-family="Helvetica,sans-Serif" font-size="9.00" fill="#4a5b6e"> &#160;parent_of</text>
<text xml:space="preserve" text-anchor="middle" x="17.08" y="-229.45" font-family="Helvetica,sans-Serif" font-size="9.00" fill="#4a5b6e"> &#160;family_handle_list &#160;</text>
</g>
<!-- event -->
<g id="node3" class="node">
<title>event</title>
<path fill="#eef2f7" stroke="#4a5b6e" d="M220.59,-184C220.59,-184 187.17,-184 187.17,-184 181.17,-184 175.17,-178 175.17,-172 175.17,-172 175.17,-160 175.17,-160 175.17,-154 181.17,-148 187.17,-148 187.17,-148 220.59,-148 220.59,-148 226.59,-148 232.59,-154 232.59,-160 232.59,-160 232.59,-172 232.59,-172 232.59,-178 226.59,-184 220.59,-184"/>
<text xml:space="preserve" text-anchor="middle" x="203.88" y="-162.3" font-family="Helvetica,sans-Serif" font-size="11.00">Event</text>
</g>
<!-- person&#45;&gt;event -->
<g id="edge3" class="edge">
<title>person&#45;&gt;event</title>
<path fill="none" stroke="#4a5b6e" d="M62.83,-180.78C91.03,-177.81 133.1,-173.36 163.77,-170.13"/>
<polygon fill="#4a5b6e" stroke="#4a5b6e" points="163.83,-173.64 173.41,-169.11 163.1,-166.68 163.83,-173.64"/>
<text xml:space="preserve" text-anchor="middle" x="118.92" y="-191.09" font-family="Helvetica,sans-Serif" font-size="9.00" fill="#4a5b6e"> &#160;EventRef</text>
<text xml:space="preserve" text-anchor="middle" x="118.92" y="-179.84" font-family="Helvetica,sans-Serif" font-size="9.00" fill="#4a5b6e"> &#160;(Role) &#160;</text>
</g>
<!-- citation -->
<g id="node5" class="node">
<title>citation</title>
<path fill="#eef2f7" stroke="#4a5b6e" d="M614.01,-184C614.01,-184 569.34,-184 569.34,-184 563.34,-184 557.34,-178 557.34,-172 557.34,-172 557.34,-160 557.34,-160 557.34,-154 563.34,-148 569.34,-148 569.34,-148 614.01,-148 614.01,-148 620.01,-148 626.01,-154 626.01,-160 626.01,-160 626.01,-172 626.01,-172 626.01,-178 620.01,-184 614.01,-184"/>
<text xml:space="preserve" text-anchor="middle" x="591.68" y="-162.3" font-family="Helvetica,sans-Serif" font-size="11.00">Citation</text>
</g>
<!-- person&#45;&gt;citation -->
<g id="edge7" class="edge">
<title>person&#45;&gt;citation</title>
<path fill="none" stroke="#4a5b6e" d="M62.89,-198.74C73.07,-202.92 84.64,-206.9 95.67,-209 115.97,-212.86 121.5,-209.25 142.17,-209 270.38,-207.44 302.96,-214.37 430.59,-202 472.66,-197.92 483.19,-195.67 524.34,-186 531.49,-184.32 539.01,-182.3 546.31,-180.2"/>
<polygon fill="#4a5b6e" stroke="#4a5b6e" points="547.1,-183.62 555.7,-177.42 545.11,-176.91 547.1,-183.62"/>
<text xml:space="preserve" text-anchor="middle" x="301.22" y="-212.26" font-family="Helvetica,sans-Serif" font-size="9.00" fill="#4a5b6e"> &#160;CitationRef &#160;</text>
</g>
<!-- media -->
<g id="node8" class="node">
<title>media</title>
<path fill="#eef2f7" stroke="#4a5b6e" d="M609.14,-36C609.14,-36 574.22,-36 574.22,-36 568.22,-36 562.22,-30 562.22,-24 562.22,-24 562.22,-12 562.22,-12 562.22,-6 568.22,0 574.22,0 574.22,0 609.14,0 609.14,0 615.14,0 621.14,-6 621.14,-12 621.14,-12 621.14,-24 621.14,-24 621.14,-30 615.14,-36 609.14,-36"/>
<text xml:space="preserve" text-anchor="middle" x="591.68" y="-14.3" font-family="Helvetica,sans-Serif" font-size="11.00">Media</text>
</g>
<!-- person&#45;&gt;media -->
<g id="edge13" class="edge">
<title>person&#45;&gt;media</title>
<path fill="none" stroke="#4a5b6e" d="M60.95,-165.61C103.79,-138.89 187.87,-89.49 265.59,-61.75 350.21,-31.55 374.32,-31.16 463.59,-21 492.55,-17.7 525.46,-17.01 550.53,-17.11"/>
<polygon fill="#4a5b6e" stroke="#4a5b6e" points="550.26,-20.61 560.29,-17.2 550.32,-13.61 550.26,-20.61"/>
<text xml:space="preserve" text-anchor="middle" x="301.22" y="-64.45" font-family="Helvetica,sans-Serif" font-size="9.00" fill="#4a5b6e"> &#160;MediaRef &#160;</text>
</g>
<!-- family&#45;&gt;person -->
<g id="edge2" class="edge">
<title>family&#45;&gt;person</title>
<path fill="none" stroke="#4a5b6e" d="M41.71,-273.66C43.31,-270.02 44.72,-266.16 45.58,-262.38 50.4,-241.25 50.4,-234.75 45.58,-213.62 45.53,-213.39 45.48,-213.15 45.42,-212.91"/>
<polygon fill="#4a5b6e" stroke="#4a5b6e" points="48.82,-212.05 42.21,-203.77 42.22,-214.37 48.82,-212.05"/>
<text xml:space="preserve" text-anchor="middle" x="39.96" y="-235.07" font-family="Helvetica,sans-Serif" font-size="9.00" fill="#4a5b6e"> &#160;ChildRef &#160;</text>
</g>
<!-- family&#45;&gt;event -->
<g id="edge4" class="edge">
<title>family&#45;&gt;event</title>
<path fill="none" stroke="#4a5b6e" d="M57.13,-273.68C86.69,-251.84 136.21,-215.25 169.21,-190.87"/>
<polygon fill="#4a5b6e" stroke="#4a5b6e" points="170.87,-194 176.83,-185.24 166.71,-188.37 170.87,-194"/>
<text xml:space="preserve" text-anchor="middle" x="118.92" y="-257.94" font-family="Helvetica,sans-Serif" font-size="9.00" fill="#4a5b6e"> &#160;EventRef</text>
<text xml:space="preserve" text-anchor="middle" x="118.92" y="-246.69" font-family="Helvetica,sans-Serif" font-size="9.00" fill="#4a5b6e"> &#160;(Role) &#160;</text>
</g>
<!-- family&#45;&gt;citation -->
<g id="edge8" class="edge">
<title>family&#45;&gt;citation</title>
<path fill="none" stroke="#4a5b6e" d="M62.39,-293.02C141.63,-294.59 361.35,-291.67 524.34,-220 539.4,-213.38 553.84,-202.38 565.39,-192.03"/>
<polygon fill="#4a5b6e" stroke="#4a5b6e" points="567.6,-194.75 572.51,-185.36 562.82,-189.64 567.6,-194.75"/>
<text xml:space="preserve" text-anchor="middle" x="301.22" y="-285.91" font-family="Helvetica,sans-Serif" font-size="9.00" fill="#4a5b6e"> &#160;CitationRef &#160;</text>
</g>
<!-- place -->
<g id="node4" class="node">
<title>place</title>
<path fill="#eef2f7" stroke="#4a5b6e" d="M415.8,-184C415.8,-184 384.63,-184 384.63,-184 378.63,-184 372.63,-178 372.63,-172 372.63,-172 372.63,-160 372.63,-160 372.63,-154 378.63,-148 384.63,-148 384.63,-148 415.8,-148 415.8,-148 421.8,-148 427.8,-154 427.8,-160 427.8,-160 427.8,-172 427.8,-172 427.8,-178 421.8,-184 415.8,-184"/>
<text xml:space="preserve" text-anchor="middle" x="400.22" y="-162.3" font-family="Helvetica,sans-Serif" font-size="11.00">Place</text>
</g>
<!-- event&#45;&gt;place -->
<g id="edge5" class="edge">
<title>event&#45;&gt;place</title>
<path fill="none" stroke="#4a5b6e" d="M232.72,-166C266.49,-166 323.56,-166 361.31,-166"/>
<polygon fill="#4a5b6e" stroke="#4a5b6e" points="360.85,-169.5 370.85,-166 360.85,-162.5 360.85,-169.5"/>
<text xml:space="preserve" text-anchor="middle" x="301.22" y="-168.7" font-family="Helvetica,sans-Serif" font-size="9.00" fill="#4a5b6e"> &#160;place_handle &#160;</text>
</g>
<!-- event&#45;&gt;citation -->
<g id="edge9" class="edge">
<title>event&#45;&gt;citation</title>
<path fill="none" stroke="#4a5b6e" d="M232.83,-153.68C275.28,-136.45 358.67,-108.36 430.59,-118.75 470.61,-124.53 514.57,-138.05 546.28,-149.15"/>
<polygon fill="#4a5b6e" stroke="#4a5b6e" points="544.94,-152.39 555.53,-152.45 547.29,-145.8 544.94,-152.39"/>
<text xml:space="preserve" text-anchor="middle" x="400.22" y="-121.45" font-family="Helvetica,sans-Serif" font-size="9.00" fill="#4a5b6e"> &#160;CitationRef &#160;</text>
</g>
<!-- event&#45;&gt;media -->
<g id="edge14" class="edge">
<title>event&#45;&gt;media</title>
<path fill="none" stroke="#4a5b6e" d="M222.23,-147.63C233.62,-136.5 249.37,-122.81 265.59,-114 360.76,-62.29 487.11,-35.31 550.62,-24.23"/>
<polygon fill="#4a5b6e" stroke="#4a5b6e" points="550.96,-27.73 560.23,-22.6 549.79,-20.83 550.96,-27.73"/>
<text xml:space="preserve" text-anchor="middle" x="400.22" y="-70.54" font-family="Helvetica,sans-Serif" font-size="9.00" fill="#4a5b6e"> &#160;MediaRef &#160;</text>
</g>
<!-- place&#45;&gt;place -->
<g id="edge6" class="edge">
<title>place:s&#45;&gt;place:s</title>
<path fill="none" stroke="#4a5b6e" d="M400.22,-148C376.78,-136 376.78,-112 400.22,-112 419.99,-112 423.08,-129.09 409.48,-141.63"/>
<polygon fill="#4a5b6e" stroke="#4a5b6e" points="407.72,-138.6 401.46,-147.14 411.69,-144.37 407.72,-138.6"/>
<text xml:space="preserve" text-anchor="middle" x="400.22" y="-103.45" font-family="Helvetica,sans-Serif" font-size="9.00" fill="#4a5b6e"> &#160;enclosed_by &#160;</text>
</g>
<!-- place&#45;&gt;citation -->
<g id="edge10" class="edge">
<title>place&#45;&gt;citation</title>
<path fill="none" stroke="#4a5b6e" d="M427.96,-166C458.52,-166 509.02,-166 545.67,-166"/>
<polygon fill="#4a5b6e" stroke="#4a5b6e" points="545.53,-169.5 555.53,-166 545.53,-162.5 545.53,-169.5"/>
<text xml:space="preserve" text-anchor="middle" x="493.97" y="-168.7" font-family="Helvetica,sans-Serif" font-size="9.00" fill="#4a5b6e"> &#160;CitationRef &#160;</text>
</g>
<!-- source -->
<g id="node6" class="node">
<title>source</title>
<path fill="#eef2f7" stroke="#4a5b6e" d="M820.68,-110C820.68,-110 781.26,-110 781.26,-110 775.26,-110 769.26,-104 769.26,-98 769.26,-98 769.26,-86 769.26,-86 769.26,-80 775.26,-74 781.26,-74 781.26,-74 820.68,-74 820.68,-74 826.68,-74 832.68,-80 832.68,-86 832.68,-86 832.68,-98 832.68,-98 832.68,-104 826.68,-110 820.68,-110"/>
<text xml:space="preserve" text-anchor="middle" x="800.97" y="-88.3" font-family="Helvetica,sans-Serif" font-size="11.00">Source</text>
</g>
<!-- citation&#45;&gt;source -->
<g id="edge11" class="edge">
<title>citation&#45;&gt;source</title>
<path fill="none" stroke="#4a5b6e" d="M626.44,-153.95C662.52,-141.07 719.73,-120.64 758.51,-106.8"/>
<polygon fill="#4a5b6e" stroke="#4a5b6e" points="759.26,-110.25 767.5,-103.59 756.91,-103.66 759.26,-110.25"/>
<text xml:space="preserve" text-anchor="middle" x="697.64" y="-144.76" font-family="Helvetica,sans-Serif" font-size="9.00" fill="#4a5b6e"> &#160;source_handle &#160;</text>
</g>
<!-- repository -->
<g id="node7" class="node">
<title>repository</title>
<path fill="#eef2f7" stroke="#4a5b6e" d="M1020.6,-110C1020.6,-110 959.43,-110 959.43,-110 953.43,-110 947.43,-104 947.43,-98 947.43,-98 947.43,-86 947.43,-86 947.43,-80 953.43,-74 959.43,-74 959.43,-74 1020.6,-74 1020.6,-74 1026.6,-74 1032.6,-80 1032.6,-86 1032.6,-86 1032.6,-98 1032.6,-98 1032.6,-104 1026.6,-110 1020.6,-110"/>
<text xml:space="preserve" text-anchor="middle" x="990.02" y="-88.3" font-family="Helvetica,sans-Serif" font-size="11.00">Repository</text>
</g>
<!-- source&#45;&gt;repository -->
<g id="edge12" class="edge">
<title>source&#45;&gt;repository</title>
<path fill="none" stroke="#4a5b6e" d="M832.86,-92C860.79,-92 902.54,-92 935.83,-92"/>
<polygon fill="#4a5b6e" stroke="#4a5b6e" points="935.71,-95.5 945.71,-92 935.71,-88.5 935.71,-95.5"/>
<text xml:space="preserve" text-anchor="middle" x="890.06" y="-94.7" font-family="Helvetica,sans-Serif" font-size="9.00" fill="#4a5b6e"> &#160;RepoRef &#160;</text>
</g>
<!-- source&#45;&gt;media -->
<g id="edge15" class="edge">
<title>source&#45;&gt;media</title>
<path fill="none" stroke="#4a5b6e" d="M769.03,-80.95C732.57,-67.94 671.94,-46.3 632.14,-32.09"/>
<polygon fill="#4a5b6e" stroke="#4a5b6e" points="633.52,-28.86 622.92,-28.8 631.17,-35.46 633.52,-28.86"/>
<text xml:space="preserve" text-anchor="middle" x="697.64" y="-70.76" font-family="Helvetica,sans-Serif" font-size="9.00" fill="#4a5b6e"> &#160;MediaRef &#160;</text>
</g>
</g>
</svg>
