<?xml version="1.0" encoding="UTF-8" standalone="no"?>
<!DOCTYPE svg PUBLIC "-//W3C//DTD SVG 1.1//EN"
 "http://www.w3.org/Graphics/SVG/1.1/DTD/svg11.dtd">
<!-- Generated by graphviz version 14.1.2 (0)
 -->
<!-- Title: plugin_discovery Pages: 1 -->
<svg width="532pt" height="364pt"
 viewBox="0.00 0.00 532.00 364.00" xmlns="http://www.w3.org/2000/svg" xmlns:xlink="http://www.w3.org/1999/xlink">
<g id="graph0" class="graph" transform="scale(1 1) rotate(0) translate(14.4 349.75)">
<title>plugin_discovery</title>
<!-- startup -->
<g id="node1" class="node">
<title>startup</title>
<path fill="#eef2f7" stroke="#4a5b6e" d="M171.8,-332.65C171.8,-332.65 83.63,-332.65 83.63,-332.65 77.63,-332.65 71.63,-326.65 71.63,-320.65 71.63,-320.65 71.63,-308.65 71.63,-308.65 71.63,-302.65 77.63,-296.65 83.63,-296.65 83.63,-296.65 171.8,-296.65 171.8,-296.65 177.8,-296.65 183.8,-302.65 183.8,-308.65 183.8,-308.65 183.8,-320.65 183.8,-320.65 183.8,-326.65 177.8,-332.65 171.8,-332.65"/>
<text xml:space="preserve" text-anchor="middle" x="127.71" y="-310.95" font-family="Helvetica,sans-Serif" font-size="11.00">Gramps startup</text>
</g>
<!-- reg -->
<g id="node2" class="node">
<title>reg</title>
<path fill="#eef2f7" stroke="#4a5b6e" d="M204.8,-256.95C204.8,-256.95 50.63,-256.95 50.63,-256.95 44.63,-256.95 38.63,-250.95 38.63,-244.95 38.63,-244.95 38.63,-214.05 38.63,-214.05 38.63,-208.05 44.63,-202.05 50.63,-202.05 50.63,-202.05 204.8,-202.05 204.8,-202.05 210.8,-202.05 216.8,-208.05 216.8,-214.05 216.8,-214.05 216.8,-244.95 216.8,-244.95 216.8,-250.95 210.8,-256.95 204.8,-256.95"/>
<text xml:space="preserve" text-anchor="middle" x="127.71" y="-239.3" font-family="Helvetica,sans-Serif" font-size="11.00">reg_plugins(plugin_dir)</text>
<text xml:space="preserve" text-anchor="middle" x="127.71" y="-225.8" font-family="Helvetica,sans-Serif" font-size="11.00">recursive scan</text>
<text xml:space="preserve" text-anchor="middle" x="127.71" y="-212.3" font-family="Helvetica,sans-Serif" font-size="11.00">(follows symlinks since 6.1)</text>
</g>
<!-- startup&#45;&gt;reg -->
<g id="edge1" class="edge">
<title>startup&#45;&gt;reg</title>
<path fill="none" stroke="#4a5b6e" d="M127.71,-296.42C127.71,-288.28 127.71,-278.23 127.71,-268.44"/>
<polygon fill="#4a5b6e" stroke="#4a5b6e" points="131.21,-268.72 127.71,-258.72 124.21,-268.72 131.21,-268.72"/>
</g>
<!-- gpr -->
<g id="node3" class="node">
<title>gpr</title>
<path fill="#eef2f7" stroke="#4a5b6e" d="M222.8,-143.55C222.8,-143.55 32.63,-143.55 32.63,-143.55 26.63,-143.55 20.63,-137.55 20.63,-131.55 20.63,-131.55 20.63,-114.15 20.63,-114.15 20.63,-108.15 26.63,-102.15 32.63,-102.15 32.63,-102.15 222.8,-102.15 222.8,-102.15 228.8,-102.15 234.8,-108.15 234.8,-114.15 234.8,-114.15 234.8,-131.55 234.8,-131.55 234.8,-137.55 228.8,-143.55 222.8,-143.55"/>
<text xml:space="preserve" text-anchor="middle" x="127.71" y="-125.9" font-family="Helvetica,sans-Serif" font-size="11.00">Load each *.gpr.py</text>
<text xml:space="preserve" text-anchor="middle" x="127.71" y="-112.4" font-family="Helvetica,sans-Serif" font-size="11.00">(top&#45;level register() calls execute)</text>
</g>
<!-- reg&#45;&gt;gpr -->
<g id="edge2" class="edge">
<title>reg&#45;&gt;gpr</title>
<path fill="none" stroke="#4a5b6e" d="M127.71,-201.55C127.71,-187.31 127.71,-169.76 127.71,-154.95"/>
<polygon fill="#4a5b6e" stroke="#4a5b6e" points="131.21,-155.28 127.71,-145.28 124.21,-155.28 131.21,-155.28"/>
<text xml:space="preserve" text-anchor="middle" x="159.21" y="-175.5" font-family="Helvetica,sans-Serif" font-size="9.00" fill="#4a5b6e"> &#160;for each</text>
<text xml:space="preserve" text-anchor="middle" x="159.21" y="-164.25" font-family="Helvetica,sans-Serif" font-size="9.00" fill="#4a5b6e"> &#160;addon folder</text>
</g>
<!-- catalog -->
<g id="node4" class="node">
<title>catalog</title>
<path fill="#eef2f7" stroke="#4a5b6e" d="M243.42,-54.9C243.42,-54.9 12,-54.9 12,-54.9 6,-54.9 0,-48.9 0,-42.9 0,-42.9 0,-12 0,-12 0,-6 6,0 12,0 12,0 243.42,0 243.42,0 249.42,0 255.42,-6 255.42,-12 255.42,-12 255.42,-42.9 255.42,-42.9 255.42,-48.9 249.42,-54.9 243.42,-54.9"/>
<text xml:space="preserve" text-anchor="middle" x="127.71" y="-37.25" font-family="Helvetica,sans-Serif" font-size="11.00">Plugin catalog</text>
<text xml:space="preserve" text-anchor="middle" x="127.71" y="-23.75" font-family="Helvetica,sans-Serif" font-size="11.00">name, id, kind, target version</text>
<text xml:space="preserve" text-anchor="middle" x="127.71" y="-10.25" font-family="Helvetica,sans-Serif" font-size="11.00">(implementation module NOT loaded yet)</text>
</g>
<!-- gpr&#45;&gt;catalog -->
<g id="edge3" class="edge">
<title>gpr&#45;&gt;catalog</title>
<path fill="none" stroke="#4a5b6e" d="M127.71,-102.04C127.71,-91.74 127.71,-78.78 127.71,-66.62"/>
<polygon fill="#4a5b6e" stroke="#4a5b6e" points="131.21,-66.83 127.71,-56.83 124.21,-66.83 131.21,-66.83"/>
<text xml:space="preserve" text-anchor="middle" x="156.21" y="-75.6" font-family="Helvetica,sans-Serif" font-size="9.00" fill="#4a5b6e"> &#160;register(...)</text>
</g>
<!-- invoke -->
<g id="node5" class="node">
<title>invoke</title>
<path fill="#eef2f7" stroke="#4a5b6e" d="M480.42,-335.35C480.42,-335.35 327,-335.35 327,-335.35 321,-335.35 315,-329.35 315,-323.35 315,-323.35 315,-305.95 315,-305.95 315,-299.95 321,-293.95 327,-293.95 327,-293.95 480.42,-293.95 480.42,-293.95 486.42,-293.95 492.42,-299.95 492.42,-305.95 492.42,-305.95 492.42,-323.35 492.42,-323.35 492.42,-329.35 486.42,-335.35 480.42,-335.35"/>
<text xml:space="preserve" text-anchor="middle" x="403.71" y="-317.7" font-family="Helvetica,sans-Serif" font-size="11.00">User invokes the addon</text>
<text xml:space="preserve" text-anchor="middle" x="403.71" y="-304.2" font-family="Helvetica,sans-Serif" font-size="11.00">(menu, sidebar, restart, ...)</text>
</g>
<!-- catalog&#45;&gt;invoke -->
<g id="edge4" class="edge">
<title>catalog&#45;&gt;invoke</title>
<path fill="none" stroke="#4a5b6e" stroke-dasharray="5,2" d="M192.26,-55.26C213.3,-66.87 235,-82.4 249.71,-102.15 292.15,-159.14 244.97,-201.74 289.71,-256.95 300.38,-270.12 314.9,-280.49 329.99,-288.55"/>
<polygon fill="#4a5b6e" stroke="#4a5b6e" points="328.09,-291.52 338.6,-292.85 331.21,-285.25 328.09,-291.52"/>
<text xml:space="preserve" text-anchor="middle" x="298.12" y="-175.5" font-family="Helvetica,sans-Serif" font-size="9.00" fill="#4a5b6e"> &#160;later,</text>
<text xml:space="preserve" text-anchor="middle" x="298.12" y="-164.25" font-family="Helvetica,sans-Serif" font-size="9.00" fill="#4a5b6e"> &#160;on demand</text>
</g>
<!-- load -->
<g id="node6" class="node">
<title>load</title>
<path fill="#eef2f7" stroke="#4a5b6e" d="M490.92,-250.2C490.92,-250.2 316.5,-250.2 316.5,-250.2 310.5,-250.2 304.5,-244.2 304.5,-238.2 304.5,-238.2 304.5,-220.8 304.5,-220.8 304.5,-214.8 310.5,-208.8 316.5,-208.8 316.5,-208.8 490.92,-208.8 490.92,-208.8 496.92,-208.8 502.92,-214.8 502.92,-220.8 502.92,-220.8 502.92,-238.2 502.92,-238.2 502.92,-244.2 496.92,-250.2 490.92,-250.2"/>
<text xml:space="preserve" text-anchor="middle" x="403.71" y="-232.55" font-family="Helvetica,sans-Serif" font-size="11.00">Load fname module</text>
<text xml:space="preserve" text-anchor="middle" x="403.71" y="-219.05" font-family="Helvetica,sans-Serif" font-size="11.00">Instantiate the registered class</text>
</g>
<!-- invoke&#45;&gt;load -->
<g id="edge5" class="edge">
<title>invoke&#45;&gt;load</title>
<path fill="none" stroke="#4a5b6e" d="M403.71,-293.52C403.71,-284.02 403.71,-272.47 403.71,-261.86"/>
<polygon fill="#4a5b6e" stroke="#4a5b6e" points="407.21,-261.96 403.71,-251.96 400.21,-261.96 407.21,-261.96"/>
</g>
</g>
</svg>
