<?xml version="1.0" encoding="UTF-8" standalone="no"?>
<!DOCTYPE svg PUBLIC "-//W3C//DTD SVG 1.1//EN"
 "http://www.w3.org/Graphics/SVG/1.1/DTD/svg11.dtd">
<!-- Generated by graphviz version 14.1.2 (0)
 -->
<!-- Title: packaging_pipeline Pages: 1 -->
<svg width="1464pt" height="204pt"
 viewBox="0.00 0.00 1464.00 204.00" xmlns="http://www.w3.org/2000/svg" xmlns:xlink="http://www.w3.org/1999/xlink">
<g id="graph0" class="graph" transform="scale(1 1) rotate(0) translate(18 186)">
<title>packaging_pipeline</title>
<g id="clust1" class="cluster">
<title>cluster_source</title>
<path fill="none" stroke="#9aacc0" stroke-dasharray="5,2" d="M18.21,-22C18.21,-22 133.96,-22 133.96,-22 139.96,-22 145.96,-28 145.96,-34 145.96,-34 145.96,-133 145.96,-133 145.96,-139 139.96,-145 133.96,-145 133.96,-145 18.21,-145 18.21,-145 12.21,-145 6.21,-139 6.21,-133 6.21,-133 6.21,-34 6.21,-34 6.21,-28 12.21,-22 18.21,-22"/>
<text xml:space="preserve" text-anchor="middle" x="76.09" y="-29.25" font-family="Helvetica,sans-Serif" font-size="10.00" fill="#4a5b6e">addons&#45;source repository</text>
</g>
<g id="clust2" class="cluster">
<title>cluster_addons</title>
<path fill="none" stroke="#9aacc0" stroke-dasharray="5,2" d="M804.3,-8C804.3,-8 940.97,-8 940.97,-8 946.97,-8 952.97,-14 952.97,-20 952.97,-20 952.97,-148 952.97,-148 952.97,-154 946.97,-160 940.97,-160 940.97,-160 804.3,-160 804.3,-160 798.3,-160 792.3,-154 792.3,-148 792.3,-148 792.3,-20 792.3,-20 792.3,-14 798.3,-8 804.3,-8"/>
<text xml:space="preserve" text-anchor="middle" x="872.64" y="-15.25" font-family="Helvetica,sans-Serif" font-size="10.00" fill="#4a5b6e">addons repository</text>
</g>
<!-- source -->
<g id="node1" class="node">
<title>source</title>
<path fill="#eef2f7" stroke="#4a5b6e" d="M121.17,-134.95C121.17,-134.95 30,-134.95 30,-134.95 24,-134.95 18,-128.95 18,-122.95 18,-122.95 18,-65.05 18,-65.05 18,-59.05 24,-53.05 30,-53.05 30,-53.05 121.17,-53.05 121.17,-53.05 127.17,-53.05 133.17,-59.05 133.17,-65.05 133.17,-65.05 133.17,-122.95 133.17,-122.95 133.17,-128.95 127.17,-134.95 121.17,-134.95"/>
<text xml:space="preserve" text-anchor="middle" x="75.59" y="-117.3" font-family="Helvetica,sans-Serif" font-size="11.00">MyAddon/</text>
<text xml:space="preserve" text-anchor="middle" x="75.59" y="-103.8" font-family="Helvetica,sans-Serif" font-size="11.00">MyAddon.gpr.py</text>
<text xml:space="preserve" text-anchor="middle" x="75.59" y="-90.3" font-family="Helvetica,sans-Serif" font-size="11.00">MyAddon.py</text>
<text xml:space="preserve" text-anchor="middle" x="75.59" y="-76.8" font-family="Helvetica,sans-Serif" font-size="11.00">po/</text>
<text xml:space="preserve" text-anchor="middle" x="75.59" y="-63.3" font-family="Helvetica,sans-Serif" font-size="11.00">tests/</text>
</g>
<!-- make -->
<g id="node2" class="node">
<title>make</title>
<polygon fill="#dfe7f1" stroke="#4a5b6e" points="459.13,-137.7 242.71,-137.7 242.71,-96.3 459.13,-96.3 459.13,-137.7"/>
<text xml:space="preserve" text-anchor="middle" x="350.92" y="-120.05" font-family="Helvetica,sans-Serif" font-size="11.00">make.py gramps60 build MyAddon</text>
<text xml:space="preserve" text-anchor="middle" x="350.92" y="-106.55" font-family="Helvetica,sans-Serif" font-size="11.00">(compile po, package files)</text>
</g>
<!-- source&#45;&gt;make -->
<g id="edge1" class="edge">
<title>source&#45;&gt;make</title>
<path fill="none" stroke="#4a5b6e" d="M133.55,-98.79C161.81,-101.17 197.05,-104.14 230.83,-106.98"/>
<polygon fill="#4a5b6e" stroke="#4a5b6e" points="230.45,-110.46 240.71,-107.81 231.04,-103.48 230.45,-110.46"/>
<text xml:space="preserve" text-anchor="middle" x="189.34" y="-108.89" font-family="Helvetica,sans-Serif" font-size="9.00" fill="#4a5b6e"> &#160;author edits &#160;</text>
</g>
<!-- listing -->
<g id="node3" class="node">
<title>listing</title>
<polygon fill="#dfe7f1" stroke="#4a5b6e" points="723.3,-72.7 500.13,-72.7 500.13,-31.3 723.3,-31.3 723.3,-72.7"/>
<text xml:space="preserve" text-anchor="middle" x="611.72" y="-55.05" font-family="Helvetica,sans-Serif" font-size="11.00">make.py gramps60 listing MyAddon</text>
<text xml:space="preserve" text-anchor="middle" x="611.72" y="-41.55" font-family="Helvetica,sans-Serif" font-size="11.00">(refresh listings JSON)</text>
</g>
<!-- source&#45;&gt;listing -->
<!-- make&#45;&gt;listing -->
<g id="edge4" class="edge">
<title>make&#45;&gt;listing</title>
<path fill="none" stroke="#4a5b6e" stroke-dasharray="1,5" d="M436.3,-95.81C465.21,-88.55 497.55,-80.42 526.45,-73.16"/>
</g>
<!-- tgz -->
<g id="node4" class="node">
<title>tgz</title>
<path fill="#eef2f7" stroke="#4a5b6e" d="M930.97,-149.7C930.97,-149.7 814.3,-149.7 814.3,-149.7 808.3,-149.7 802.3,-143.7 802.3,-137.7 802.3,-137.7 802.3,-120.3 802.3,-120.3 802.3,-114.3 808.3,-108.3 814.3,-108.3 814.3,-108.3 930.97,-108.3 930.97,-108.3 936.97,-108.3 942.97,-114.3 942.97,-120.3 942.97,-120.3 942.97,-137.7 942.97,-137.7 942.97,-143.7 936.97,-149.7 930.97,-149.7"/>
<text xml:space="preserve" text-anchor="middle" x="872.64" y="-132.05" font-family="Helvetica,sans-Serif" font-size="11.00">gramps60/download/</text>
<text xml:space="preserve" text-anchor="middle" x="872.64" y="-118.55" font-family="Helvetica,sans-Serif" font-size="11.00">MyAddon.addon.tgz</text>
</g>
<!-- make&#45;&gt;tgz -->
<g id="edge3" class="edge">
<title>make&#45;&gt;tgz</title>
<path fill="none" stroke="#4a5b6e" d="M459.61,-119.49C558.02,-121.76 701.38,-125.07 790.45,-127.13"/>
<polygon fill="#4a5b6e" stroke="#4a5b6e" points="790.25,-130.62 800.33,-127.35 790.42,-123.62 790.25,-130.62"/>
<text xml:space="preserve" text-anchor="middle" x="611.72" y="-128.27" font-family="Helvetica,sans-Serif" font-size="9.00" fill="#4a5b6e"> &#160;build &#160;</text>
</g>
<!-- listings -->
<g id="node5" class="node">
<title>listings</title>
<path fill="#eef2f7" stroke="#4a5b6e" d="M924.22,-79.7C924.22,-79.7 821.05,-79.7 821.05,-79.7 815.05,-79.7 809.05,-73.7 809.05,-67.7 809.05,-67.7 809.05,-50.3 809.05,-50.3 809.05,-44.3 815.05,-38.3 821.05,-38.3 821.05,-38.3 924.22,-38.3 924.22,-38.3 930.22,-38.3 936.22,-44.3 936.22,-50.3 936.22,-50.3 936.22,-67.7 936.22,-67.7 936.22,-73.7 930.22,-79.7 924.22,-79.7"/>
<text xml:space="preserve" text-anchor="middle" x="872.64" y="-62.05" font-family="Helvetica,sans-Serif" font-size="11.00">gramps60/listings/</text>
<text xml:space="preserve" text-anchor="middle" x="872.64" y="-48.55" font-family="Helvetica,sans-Serif" font-size="11.00">*.json</text>
</g>
<!-- listing&#45;&gt;listings -->
<g id="edge5" class="edge">
<title>listing&#45;&gt;listings</title>
<path fill="none" stroke="#4a5b6e" d="M723.65,-55C748.54,-55.67 774.37,-56.37 797.34,-56.99"/>
<polygon fill="#4a5b6e" stroke="#4a5b6e" points="797.12,-60.49 807.21,-57.26 797.31,-53.49 797.12,-60.49"/>
<text xml:space="preserve" text-anchor="middle" x="762.8" y="-59.24" font-family="Helvetica,sans-Serif" font-size="9.00" fill="#4a5b6e"> &#160;listing &#160;</text>
</g>
<!-- manager -->
<g id="node6" class="node">
<title>manager</title>
<path fill="#eef2f7" stroke="#4a5b6e" d="M1149.89,-116.7C1149.89,-116.7 1061.72,-116.7 1061.72,-116.7 1055.72,-116.7 1049.72,-110.7 1049.72,-104.7 1049.72,-104.7 1049.72,-87.3 1049.72,-87.3 1049.72,-81.3 1055.72,-75.3 1061.72,-75.3 1061.72,-75.3 1149.89,-75.3 1149.89,-75.3 1155.89,-75.3 1161.89,-81.3 1161.89,-87.3 1161.89,-87.3 1161.89,-104.7 1161.89,-104.7 1161.89,-110.7 1155.89,-116.7 1149.89,-116.7"/>
<text xml:space="preserve" text-anchor="middle" x="1105.81" y="-99.05" font-family="Helvetica,sans-Serif" font-size="11.00">Gramps in&#45;app</text>
<text xml:space="preserve" text-anchor="middle" x="1105.81" y="-85.55" font-family="Helvetica,sans-Serif" font-size="11.00">addon manager</text>
</g>
<!-- tgz&#45;&gt;manager -->
<g id="edge6" class="edge">
<title>tgz&#45;&gt;manager</title>
<path fill="none" stroke="#4a5b6e" d="M943.31,-119.05C973.48,-114.75 1008.65,-109.73 1038.45,-105.47"/>
<polygon fill="#4a5b6e" stroke="#4a5b6e" points="1038.68,-108.98 1048.08,-104.1 1037.69,-102.05 1038.68,-108.98"/>
<text xml:space="preserve" text-anchor="middle" x="996.35" y="-118.16" font-family="Helvetica,sans-Serif" font-size="9.00" fill="#4a5b6e"> &#160;HTTPS fetch &#160;</text>
</g>
<!-- listings&#45;&gt;manager -->
<g id="edge7" class="edge">
<title>listings&#45;&gt;manager</title>
<path fill="none" stroke="#4a5b6e" d="M936.5,-69.06C968.07,-74.12 1006.33,-80.24 1038.38,-85.37"/>
<polygon fill="#4a5b6e" stroke="#4a5b6e" points="1037.52,-88.77 1047.94,-86.9 1038.62,-81.86 1037.52,-88.77"/>
<text xml:space="preserve" text-anchor="middle" x="996.35" y="-85.68" font-family="Helvetica,sans-Serif" font-size="9.00" fill="#4a5b6e"> &#160;HTTPS fetch &#160;</text>
</g>
<!-- user -->
<g id="node7" class="node">
<title>user</title>
<path fill="#e6efe2" stroke="#5a7251" d="M1416.06,-123.45C1416.06,-123.45 1258.14,-123.45 1258.14,-123.45 1252.14,-123.45 1246.14,-117.45 1246.14,-111.45 1246.14,-111.45 1246.14,-80.55 1246.14,-80.55 1246.14,-74.55 1252.14,-68.55 1258.14,-68.55 1258.14,-68.55 1416.06,-68.55 1416.06,-68.55 1422.06,-68.55 1428.06,-74.55 1428.06,-80.55 1428.06,-80.55 1428.06,-111.45 1428.06,-111.45 1428.06,-117.45 1422.06,-123.45 1416.06,-123.45"/>
<text xml:space="preserve" text-anchor="middle" x="1337.1" y="-105.8" font-family="Helvetica,sans-Serif" font-size="11.00">User plugin dir</text>
<text xml:space="preserve" text-anchor="middle" x="1337.1" y="-92.3" font-family="Helvetica,sans-Serif" font-size="11.00">~/.local/share/gramps/</text>
<text xml:space="preserve" text-anchor="middle" x="1337.1" y="-78.8" font-family="Helvetica,sans-Serif" font-size="11.00">gramps60/plugins/MyAddon/</text>
</g>
<!-- manager&#45;&gt;user -->
<g id="edge8" class="edge">
<title>manager&#45;&gt;user</title>
<path fill="none" stroke="#4a5b6e" d="M1162.31,-96C1184.03,-96 1209.66,-96 1234.46,-96"/>
<polygon fill="#4a5b6e" stroke="#4a5b6e" points="1234.27,-99.5 1244.27,-96 1234.27,-92.5 1234.27,-99.5"/>
<text xml:space="preserve" text-anchor="middle" x="1204.02" y="-109.95" font-family="Helvetica,sans-Serif" font-size="9.00" fill="#4a5b6e"> &#160;install /</text>
<text xml:space="preserve" text-anchor="middle" x="1204.02" y="-98.7" font-family="Helvetica,sans-Serif" font-size="9.00" fill="#4a5b6e"> &#160;update &#160;</text>
</g>
</g>
</svg>
